<?xml version="1.0" encoding="UTF-8" standalone="no"?>
<svg
   id="Vrstva_2"
   data-name="Vrstva 2"
   viewBox="0 0 143.93 143.92999"
   version="1.1"
   width="143.92999"
   height="143.92999"
   xmlns="http://www.w3.org/2000/svg">
  <defs>
    <style>
      .cls-1 { fill: #ff6d43; }
    </style>
  </defs>
  <g id="Vrstva_1-2" data-name="Vrstva 1">
    <path
       d="m 93.93,90.81 c -0.6,0 -1.08,-0.48 -1.08,-1.08 L 92.82,77.2 92.8,67.5 c 0,-1.1 -1.45,-1.49 -2.01,-0.55 l -4.67,7.85 -6.36,10.68 c -0.2,0.33 -0.55,0.53 -0.93,0.53 h -3.51 c -0.38,0 -0.73,-0.2 -0.92,-0.52 l -6.32,-10.4 -4.64,-7.62 c -0.57,-0.93 -2,-0.53 -2,0.56 v 21.69 c 0,0.6 -0.48,1.08 -1.08,1.08 h -7.69 c -0.6,0 -1.08,-0.48 -1.08,-1.08 V 46.54 c 0,-0.6 0.48,-1.08 1.08,-1.08 h 6.99 c 0.38,0 0.73,0.2 0.93,0.52 l 8.17,13.57 7.55,12.54 c 0.42,0.7 1.44,0.7 1.85,0 L 85.59,59.56 93.63,46 c 0.19,-0.33 0.55,-0.53 0.93,-0.53 h 6.92 c 0.6,0 1.08,0.48 1.08,1.08 l 0.06,21.59 0.06,21.59 c 0,0.6 -0.48,1.08 -1.08,1.08 h -7.69 z"
       id="path1"
       style="fill:#ffffff" />
    <path
       class="cls-1"
       d="m 142.68,54.75 c -0.38,-0.38 -0.84,-0.69 -1.34,-0.9 -0.5,-0.21 -1.06,-0.33 -1.64,-0.33 h -9.34 c -0.29,-1.21 -0.62,-2.41 -0.99,-3.59 -0.37,-1.18 -0.78,-2.34 -1.22,-3.48 -0.44,-1.14 -0.93,-2.27 -1.45,-3.37 -0.52,-1.1 -1.08,-2.19 -1.67,-3.25 l 1.72,-1.72 1.72,-1.72 1.72,-1.72 1.72,-1.72 c 0.41,-0.41 0.72,-0.89 0.93,-1.4 0.21,-0.51 0.31,-1.05 0.31,-1.59 0,-0.54 -0.1,-1.08 -0.31,-1.59 -0.21,-0.51 -0.51,-0.98 -0.93,-1.4 l -3.1,-3.11 -3.11,-3.11 -3.11,-3.11 -3.1,-3.11 c -0.41,-0.41 -0.89,-0.72 -1.4,-0.93 -0.51,-0.21 -1.05,-0.31 -1.59,-0.31 -0.54,0 -1.08,0.1 -1.59,0.31 -0.51,0.21 -0.99,0.52 -1.4,0.93 l -1.55,1.55 -1.55,1.55 -1.55,1.55 -1.55,1.55 c -1.24,-0.82 -2.51,-1.59 -3.82,-2.3 -1.31,-0.72 -2.64,-1.38 -4.01,-1.99 -1.37,-0.61 -2.77,-1.17 -4.19,-1.66 -1.42,-0.5 -2.88,-0.94 -4.35,-1.32 V 4.22 C 90.94,3.64 90.82,3.08 90.61,2.58 90.4,2.08 90.09,1.62 89.71,1.24 89.33,0.86 88.87,0.55 88.37,0.34 87.87,0.13 87.31,0.01 86.73,0.01 H 69.16 c -0.58,0 -1.14,0.12 -1.64,0.33 -0.5,0.21 -0.96,0.52 -1.34,0.9 -0.38,0.38 -0.69,0.84 -0.9,1.34 -0.21,0.5 -0.33,1.06 -0.33,1.64 v 9 c -4.26,1.01 -8.33,2.51 -12.14,4.46 -3.81,1.94 -7.36,4.32 -10.59,7.07 -2.46,2.09 -4.72,4.4 -6.77,6.9 -1.68,2.04 -3.21,4.21 -4.58,6.49 -0.55,0.9 -0.45,2.06 0.22,2.89 l 5.2,6.45 3.54,4.39 c 1.18,1.46 3.5,1.19 4.26,-0.53 0.74,-1.65 1.59,-3.24 2.56,-4.75 1.71,-2.68 3.76,-5.13 6.09,-7.28 3.25,-3 7.05,-5.41 11.23,-7.08 4.17,-1.66 8.73,-2.58 13.49,-2.58 5.04,0 9.84,1.02 14.22,2.88 4.37,1.85 8.31,4.53 11.62,7.84 3.31,3.31 5.99,7.25 7.84,11.62 1.85,4.37 2.88,9.18 2.88,14.22 0,4.65 -0.87,9.1 -2.47,13.2 -1.59,4.1 -3.9,7.83 -6.78,11.06 -2.87,3.23 -6.31,5.94 -10.15,8 -3.84,2.05 -8.09,3.43 -12.6,4 H 77.4 c -0.58,0 -1.14,0.12 -1.64,0.33 -0.5,0.21 -0.96,0.52 -1.34,0.9 -0.38,0.38 -0.69,0.84 -0.9,1.34 -0.21,0.5 -0.33,1.06 -0.33,1.64 0,0.65 0,1.31 0,1.97 0,0.65 0,1.31 0,1.97 0,0.66 0,1.31 0,1.97 0,0.65 0,1.31 0,1.97 -0.63,-0.02 -1.32,-0.06 -2.06,-0.12 -0.75,-0.06 -1.55,-0.15 -2.39,-0.27 -0.85,-0.12 -1.74,-0.28 -2.67,-0.48 -0.93,-0.2 -1.9,-0.44 -2.9,-0.74 -2.04,-0.6 -3.9,-1.32 -5.58,-2.11 -1.69,-0.79 -3.21,-1.65 -4.57,-2.51 -1.37,-0.87 -2.58,-1.75 -3.65,-2.59 -1.07,-0.84 -2.01,-1.63 -2.82,-2.32 0,0 -0.47,-0.39 -1.25,-1.12 -0.78,-0.73 -1.88,-1.81 -3.15,-3.19 -1.27,-1.37 -2.7,-3.04 -4.16,-4.96 C 36.54,92.23 35.07,90.07 33.73,87.7 33.46,87.22 33.22,86.74 33.01,86.3 32.8,85.85 32.62,85.44 32.48,85.08 32.34,84.73 32.22,84.43 32.15,84.22 32.08,84.01 32.04,83.9 32.04,83.9 31.96,83.65 31.89,83.42 31.82,83.19 31.76,82.96 31.7,82.75 31.65,82.55 31.6,82.35 31.56,82.16 31.52,81.98 31.48,81.8 31.45,81.64 31.42,81.5 c 0,0 0.18,0 0.57,0 0.39,0 1,0 1.85,0 0.85,0 1.95,0 3.33,0.01 1.38,0 3.05,0.02 5.03,0.04 0.61,0 1.16,-0.18 1.61,-0.47 0.45,-0.29 0.8,-0.71 1.03,-1.18 0.23,-0.47 0.34,-1.01 0.29,-1.54 -0.05,-0.54 -0.24,-1.07 -0.62,-1.55 l -4.9,-6.27 -4.9,-6.27 -4.9,-6.27 -4.9,-6.27 c -0.29,-0.38 -0.66,-0.66 -1.05,-0.85 -0.4,-0.19 -0.83,-0.28 -1.26,-0.28 -0.43,0 -0.86,0.09 -1.26,0.28 -0.4,0.19 -0.76,0.47 -1.05,0.85 l -4.9,6.27 -4.9,6.27 -4.9,6.27 -4.9,6.27 c -0.38,0.48 -0.57,1.02 -0.62,1.55 -0.05,0.53 0.06,1.07 0.29,1.54 0.23,0.47 0.59,0.88 1.03,1.18 0.45,0.29 0.99,0.47 1.61,0.47 h 9.72 c 0.49,1.76 1.26,4.3 2.41,7.3 1.15,3 2.67,6.47 4.67,10.1 2,3.63 4.48,7.41 7.53,11.04 3.05,3.63 6.68,7.11 10.99,10.13 2.23,1.57 4.57,2.95 6.86,4.17 2.29,1.21 4.53,2.25 6.58,3.12 2.04,0.87 3.89,1.56 5.38,2.09 1.5,0.53 2.64,0.89 3.28,1.09 1.68,0.52 3.32,0.97 4.89,1.35 1.57,0.39 3.08,0.71 4.51,0.98 1.43,0.27 2.79,0.49 4.07,0.67 1.28,0.18 2.47,0.32 3.56,0.42 h 9.37 c 0.58,0 1.14,-0.12 1.64,-0.33 0.5,-0.21 0.96,-0.52 1.34,-0.9 0.38,-0.38 0.69,-0.84 0.9,-1.34 0.21,-0.5 0.33,-1.06 0.33,-1.64 v -10.86 c 1.42,-0.37 2.83,-0.79 4.2,-1.26 1.38,-0.48 2.73,-1.01 4.05,-1.59 1.32,-0.58 2.62,-1.22 3.89,-1.9 1.27,-0.68 2.5,-1.41 3.71,-2.19 l 1.62,1.62 1.62,1.62 1.62,1.62 1.62,1.62 c 0.41,0.41 0.89,0.72 1.4,0.93 0.51,0.21 1.05,0.31 1.59,0.31 0.54,0 1.08,-0.1 1.59,-0.31 0.51,-0.21 0.99,-0.51 1.4,-0.93 l 3.11,-3.11 3.11,-3.1 3.11,-3.11 3.1,-3.11 c 0.41,-0.41 0.72,-0.89 0.93,-1.4 0.21,-0.51 0.31,-1.05 0.31,-1.59 0,-0.54 -0.1,-1.08 -0.31,-1.59 -0.21,-0.51 -0.51,-0.99 -0.93,-1.4 l -1.74,-1.75 -1.75,-1.75 -1.75,-1.75 -1.74,-1.75 c 0.6,-1.05 1.17,-2.12 1.7,-3.22 0.53,-1.09 1.03,-2.21 1.49,-3.34 0.46,-1.13 0.88,-2.28 1.26,-3.45 0.38,-1.17 0.73,-2.36 1.03,-3.56 h 9.49 c 0.58,0 1.14,-0.12 1.65,-0.33 0.5,-0.21 0.96,-0.52 1.34,-0.9 0.38,-0.38 0.69,-0.84 0.9,-1.34 0.21,-0.5 0.33,-1.06 0.33,-1.64 V 57.72 c 0,-0.58 -0.12,-1.14 -0.33,-1.64 -0.21,-0.51 -0.52,-0.96 -0.9,-1.34 v 0 z"
       id="path2" />
  </g>
</svg>
